<svg width="32" height="32" viewBox="0 0 32 32" fill="none" xmlns="http://www.w3.org/2000/svg">
<rect x="0.5" y="0.5" width="31" height="31" rx="3.5" stroke="url(#paint0_linear_3447_3768)"/>
<path d="M8 22H7.5H8ZM12 18V17.5V18ZM20 18V17.5V18ZM8.5 22C8.5 21.0717 8.86875 20.1815 9.52513 19.5251L8.81802 18.818C7.97411 19.6619 7.5 20.8065 7.5 22H8.5ZM9.52513 19.5251C10.1815 18.8687 11.0717 18.5 12 18.5V17.5C10.8065 17.5 9.66193 17.9741 8.81802 18.818L9.52513 19.5251ZM12 18.5H20V17.5H12V18.5ZM20 18.5C20.9283 18.5 21.8185 18.8687 22.4749 19.5251L23.182 18.818C22.3381 17.9741 21.1935 17.5 20 17.5V18.5ZM22.4749 19.5251C23.1313 20.1815 23.5 21.0717 23.5 22H24.5C24.5 20.8065 24.0259 19.6619 23.182 18.818L22.4749 19.5251ZM23.5 22C23.5 22.3978 23.342 22.7794 23.0607 23.0607L23.7678 23.7678C24.2366 23.2989 24.5 22.663 24.5 22H23.5ZM23.0607 23.0607C22.7794 23.342 22.3978 23.5 22 23.5V24.5C22.663 24.5 23.2989 24.2366 23.7678 23.7678L23.0607 23.0607ZM22 23.5H10V24.5H22V23.5ZM10 23.5C9.60218 23.5 9.22064 23.342 8.93934 23.0607L8.23223 23.7678C8.70107 24.2366 9.33696 24.5 10 24.5V23.5ZM8.93934 23.0607C8.65804 22.7794 8.5 22.3978 8.5 22H7.5C7.5 22.663 7.76339 23.2989 8.23223 23.7678L8.93934 23.0607ZM18.5 11C18.5 12.3807 17.3807 13.5 16 13.5V14.5C17.933 14.5 19.5 12.933 19.5 11H18.5ZM16 13.5C14.6193 13.5 13.5 12.3807 13.5 11H12.5C12.5 12.933 14.067 14.5 16 14.5V13.5ZM13.5 11C13.5 9.61929 14.6193 8.5 16 8.5V7.5C14.067 7.5 12.5 9.067 12.5 11H13.5ZM16 8.5C17.3807 8.5 18.5 9.61929 18.5 11H19.5C19.5 9.067 17.933 7.5 16 7.5V8.5Z" fill="#444444"/>
<defs>
<linearGradient id="paint0_linear_3447_3768" x1="16" y1="0" x2="16" y2="32" gradientUnits="userSpaceOnUse">
<stop stop-color="#FF6169"/>
<stop offset="1" stop-color="#FFA552"/>
</linearGradient>
</defs>
</svg>
