<svg width="16" height="18" viewBox="0 0 16 18" fill="none" xmlns="http://www.w3.org/2000/svg">
<path d="M0.802734 4.2H2.40273M2.40273 4.2H15.2027M2.40273 4.2L2.40273 15.4C2.40273 15.8243 2.57131 16.2313 2.87136 16.5314C3.17142 16.8314 3.57839 17 4.00273 17H12.0027C12.4271 17 12.834 16.8314 13.1341 16.5314C13.4342 16.2313 13.6027 15.8243 13.6027 15.4V4.2M4.80273 4.2V2.6C4.80273 2.17565 4.97131 1.76869 5.27136 1.46863C5.57142 1.16857 5.97839 1 6.40273 1H9.60273C10.0271 1 10.434 1.16857 10.7341 1.46863C11.0342 1.76869 11.2027 2.17565 11.2027 2.6V4.2M6.40273 8.2V13M9.60273 8.2V13" stroke="white" stroke-linecap="round" stroke-linejoin="round"/>
</svg>
