<svg width="17" height="16" viewBox="0 0 17 16" fill="none" xmlns="http://www.w3.org/2000/svg">
<path d="M15.0154 8.24442C15.0154 8.07301 15.0835 7.90862 15.2047 7.78742C15.3259 7.66621 15.4903 7.59812 15.6617 7.59812C15.8332 7.59812 15.9975 7.66621 16.1187 7.78742C16.24 7.90862 16.308 8.07301 16.308 8.24442V15.3537C16.308 15.5251 16.24 15.6895 16.1187 15.8107C15.9975 15.9319 15.8332 16 15.6617 16H1.44317C1.27176 16 1.10738 15.9319 0.986172 15.8107C0.864967 15.6895 0.796875 15.5251 0.796875 15.3537V1.13513C0.796875 0.963724 0.864967 0.799335 0.986172 0.678131C1.10738 0.556926 1.27176 0.488834 1.44317 0.488834H8.55246C8.72387 0.488834 8.88826 0.556926 9.00946 0.678131C9.13067 0.799335 9.19876 0.963724 9.19876 1.13513C9.19876 1.30654 9.13067 1.47093 9.00946 1.59213C8.88826 1.71334 8.72387 1.78143 8.55246 1.78143H2.08947V14.7074H15.0154V8.24442Z" fill="white"/>
<path d="M7.70322 9.09753L8.76962 8.94501L15.3205 2.39541C15.3822 2.3358 15.4315 2.26448 15.4653 2.18563C15.4992 2.10678 15.517 2.02197 15.5178 1.93616C15.5185 1.85034 15.5022 1.76524 15.4697 1.68581C15.4372 1.60638 15.3892 1.53422 15.3285 1.47354C15.2678 1.41286 15.1957 1.36487 15.1162 1.33237C15.0368 1.29987 14.9517 1.28352 14.8659 1.28427C14.7801 1.28501 14.6953 1.30284 14.6164 1.33671C14.5376 1.37058 14.4663 1.41982 14.4066 1.48155L7.85446 8.03114L7.70193 9.09753H7.70322ZM16.2344 0.56639C16.4145 0.746449 16.5575 0.960247 16.655 1.19557C16.7525 1.43088 16.8027 1.68311 16.8027 1.93784C16.8027 2.19256 16.7525 2.44479 16.655 2.68011C16.5575 2.91542 16.4145 3.12922 16.2344 3.30928L9.53225 10.0114C9.43342 10.1106 9.30504 10.175 9.16644 10.1949L7.03366 10.5C6.93426 10.5143 6.83291 10.5052 6.73763 10.4735C6.64236 10.4418 6.55578 10.3883 6.48478 10.3173C6.41377 10.2463 6.36029 10.1597 6.32857 10.0644C6.29685 9.96914 6.28777 9.86779 6.30205 9.76839L6.6071 7.6356C6.62668 7.49716 6.69063 7.36881 6.78936 7.2698L13.4928 0.567683C13.8564 0.204196 14.3494 0 14.8636 0C15.3777 0 15.8708 0.204196 16.2344 0.567683V0.56639Z" fill="white"/>
</svg>
